<svg xmlns="http://www.w3.org/2000/svg" viewBox="0 0 468 376.69"><defs><style>.cls-1{fill:#fff;}.cls-2,.cls-3{fill:#262626;}.cls-3{fill-rule:evenodd;}</style></defs><title>iiif-in-a-box-logo</title><g id="Layer_2" data-name="Layer 2"><g id="Layer_1-2" data-name="Layer 1"><polygon class="cls-1" points="232 369.97 412 298.97 412 76.79 241.92 4.97 55 82.97 55 295.97 232 369.97"/><g id="Layer_2-2" data-name="Layer 2"><g id="Layer_1-2-2" data-name="Layer 1-2"><g id="lXyO5B.tif"><path class="cls-2" d="M242,376.69H229a41.14,41.14,0,0,0-5-2.75q-84.23-33.26-168.49-66.35c-4.39-1.72-5.76-3.9-5.75-8.59.19-50.48.12-100.95.12-151.42V141.1L0,145.69v-1c1-1.25,2.13-2.44,3-3.77,14.76-21.6,29.4-43.23,44.22-64.78a12.8,12.8,0,0,1,5.55-4.45q92.74-35.4,185.57-70.64a11.89,11.89,0,0,1,9.5-.12Q331.42,35.13,415.14,69a15.44,15.44,0,0,1,8.91,8.52q20.47,44.4,41.17,88.71a41.86,41.86,0,0,0,2.78,4.45v2a32.93,32.93,0,0,0-3.75,1.12c-12.68,5.43-25.27,11.07-38.05,16.24-3.78,1.53-4.72,3.57-4.71,7.41.15,33.79,0,67.59.19,101.38,0,4.61-1.17,6.94-5.68,8.7q-84.27,32.94-168.36,66.29A56.34,56.34,0,0,0,242,376.69Zm-13.23-15.23c.1-1.59.24-2.71.24-3.83q0-98.19.09-196.39c0-3.22-1.1-4.54-4-5.68q-62.23-24.37-124.37-49L63.3,91.79c-.11,1.71-.24,2.82-.24,3.92q0,98.21-.11,196.4c0,3.67,1.67,4.71,4.53,5.84q75.42,29.69,150.79,59.52C221.63,358.8,225,360,228.77,361.46ZM243.37,160l-.8.24v201c1.66-.55,2.91-.9,4.11-1.38q78.92-31.11,157.85-62.15c3.11-1.22,3.73-2.9,3.72-5.91-.1-29.66-.06-59.32-.08-89,0-1.38-.25-2.76-.44-4.69L278.8,253.69Zm.55-18L404.24,78.94,243.92,13.57Z"/></g></g></g><path class="cls-3" d="M88.69,155.64c-8.11-3.95-13,.43-11.37,9.65,2,11,14.24,27,24.7,27.36,4.21.15,6.55-4.32,5.88-10.23C106.83,172.94,97.56,160,88.69,155.64Z"/><path class="cls-3" d="M110.91,183.79c-.67,5.38,1.67,11.7,5.89,14.86,10.45,7.85,22.72,1.56,24.7-7.92a16.24,16.24,0,0,0-11.37-18.59C121.25,169.48,112,175.16,110.91,183.79ZM79.55,256.14c9.21,6.3,17.53,13.15,26.27,19.74V205.31c-8.64-6.79-17.61-13.37-26.27-20.14ZM146.2,282c9.13,7.17,17.54,13.47,26.27,20.14V231.54c-8.75-6.72-17.62-13.36-26.27-20.14Zm-33.33-73.88c.07,23.74-.31,47.76.79,70.88,8.3-.33,17.33.37,25.88.38V209.17l-.79-.31C130,208.46,121.76,208.71,112.87,208.09Z"/><path class="cls-3" d="M214.42,196.68V220.6c-10-7.85-10.09,3.93-9.41,13.55,2.53,1,6.64.89,9.41.95v21.57c-3.22,0-7.19-1.13-9.41.22v48.62c-8.48-.2-18,.28-26.27-.93V259.49c0-15.76-1.36-32.39,0-45.48C180.6,196.17,196,190.59,214.42,196.68Z"/><path class="cls-3" d="M130.13,172.14a16.24,16.24,0,0,1,11.37,18.59c-2,9.48-14.25,15.77-24.7,7.92-4.22-3.16-6.56-9.48-5.89-14.86C112,175.16,121.25,169.48,130.13,172.14Z"/><path class="cls-3" d="M79.55,185.17c8.66,6.77,17.63,13.35,26.27,20.14v70.57c-8.74-6.59-17.06-13.44-26.27-19.74Z"/><path class="cls-3" d="M146.2,211.4c8.65,6.78,17.52,13.42,26.27,20.14v70.57c-8.73-6.67-17.14-13-26.27-20.14Z"/><path class="cls-3" d="M138.75,208.86l.79.31v70.18c-8.55,0-17.58-.71-25.88-.38-1.1-23.12-.72-47.14-.79-70.88C121.76,208.71,130,208.46,138.75,208.86Z"/><path class="cls-3" d="M155.75,182c-8.11-3.95-13,.42-11.37,9.64,2,11,14.24,27,24.7,27.37,4.22.15,6.55-4.33,5.88-10.24C173.89,199.33,164.62,186.36,155.75,182Z"/></g></g></svg>