<svg xmlns="http://www.w3.org/2000/svg" viewBox="0 0 446.04 246"><defs><style>.cls-1{fill:#313131;}.cls-2{fill:#231f20;}.cls-3{fill:#fff;}</style></defs><title>titleviscoll</title><g id="Layer_2" data-name="Layer 2"><g id="Layer_1-2" data-name="Layer 1"><path class="cls-1" d="M10.63,12.87h4l16.74,60h.18l17-60h5l17.28,60H71l16.47-60h4.23L73.27,77.13h-4.5L51.13,16.29H51L33.58,77.13H29.17Z" transform="translate(-10.63 -12.87)"/><path class="cls-1" d="M95.32,54.45V55a27.06,27.06,0,0,0,1.09,7.74,19.65,19.65,0,0,0,3.2,6.48,15.21,15.21,0,0,0,5.32,4.41,16.32,16.32,0,0,0,7.45,1.62q6.95,0,11-3.65A19.08,19.08,0,0,0,129,61.47h3.42q-1.53,8.1-6.61,12.42t-13.46,4.32a20.38,20.38,0,0,1-9-1.85,18,18,0,0,1-6.39-5,21.24,21.24,0,0,1-3.83-7.56,33.74,33.74,0,0,1-1.26-9.4A33,33,0,0,1,93.21,45a23.41,23.41,0,0,1,3.91-7.83,19.41,19.41,0,0,1,6.53-5.4,19.8,19.8,0,0,1,9.22-2,19.59,19.59,0,0,1,8.6,1.8,18,18,0,0,1,6.25,4.9,21.81,21.81,0,0,1,3.83,7.2,28.82,28.82,0,0,1,1.3,8.78c0,.3,0,.64,0,1s-.05.71-.05,1Zm34-3a27.74,27.74,0,0,0-1.26-7.16,17.73,17.73,0,0,0-3.2-5.94,16,16,0,0,0-5.15-4.09,15,15,0,0,0-6.9-1.53,15.94,15.94,0,0,0-12.63,5.71,18.33,18.33,0,0,0-3.34,6,28.11,28.11,0,0,0-1.45,7Z" transform="translate(-10.63 -12.87)"/><path class="cls-1" d="M145,12.87V77.13h-3.42V12.87Z" transform="translate(-10.63 -12.87)"/><path class="cls-1" d="M190.72,45.18a13.37,13.37,0,0,0-1.57-5.4,12,12,0,0,0-3.38-3.87A15.28,15.28,0,0,0,181,33.57a20.77,20.77,0,0,0-5.9-.81,16.16,16.16,0,0,0-7.65,1.75,17,17,0,0,0-5.58,4.68,21.44,21.44,0,0,0-3.42,6.66,25.62,25.62,0,0,0-1.17,7.7,32.76,32.76,0,0,0,1.08,8.64,19.51,19.51,0,0,0,3.33,6.88,15.51,15.51,0,0,0,5.58,4.55,17.71,17.71,0,0,0,7.83,1.62,16.23,16.23,0,0,0,6-1.08,16,16,0,0,0,4.86-3,15.24,15.24,0,0,0,3.46-4.55,18.36,18.36,0,0,0,1.8-5.8h3.42a21.69,21.69,0,0,1-2.25,7.38A18.06,18.06,0,0,1,188,73.66,18.57,18.57,0,0,1,182.08,77a23,23,0,0,1-16.69-.86,18.5,18.5,0,0,1-6.57-5.44A23.14,23.14,0,0,1,155,62.86a35.21,35.21,0,0,1-1.22-9.31,29.7,29.7,0,0,1,1.4-9.18,22.43,22.43,0,0,1,4.09-7.56A19.45,19.45,0,0,1,166,31.68a20.86,20.86,0,0,1,9.09-1.89,25.49,25.49,0,0,1,7.07.94A18.3,18.3,0,0,1,188,33.57a14.86,14.86,0,0,1,4.18,4.81,17.17,17.17,0,0,1,2,6.8Z" transform="translate(-10.63 -12.87)"/><path class="cls-1" d="M200.44,54a30.5,30.5,0,0,1,1.4-9.32A23.35,23.35,0,0,1,205.93,37a19.58,19.58,0,0,1,6.66-5.27,22.37,22.37,0,0,1,18.18,0A19.58,19.58,0,0,1,237.43,37a23.37,23.37,0,0,1,4.1,7.69A30.5,30.5,0,0,1,242.92,54a30.86,30.86,0,0,1-1.39,9.36,22.79,22.79,0,0,1-4.1,7.69,19.57,19.57,0,0,1-6.66,5.22,22.27,22.27,0,0,1-18.18,0,19.57,19.57,0,0,1-6.66-5.22,22.77,22.77,0,0,1-4.09-7.69A30.86,30.86,0,0,1,200.44,54Zm3.42,0A27,27,0,0,0,205,62a21.53,21.53,0,0,0,3.42,6.8A16.64,16.64,0,0,0,214,73.48a17.51,17.51,0,0,0,15.3,0,16.64,16.64,0,0,0,5.58-4.72,21.53,21.53,0,0,0,3.42-6.8,27.7,27.7,0,0,0,0-15.93,21.58,21.58,0,0,0-3.42-6.79,16.67,16.67,0,0,0-5.58-4.73,17.6,17.6,0,0,0-15.3,0,16.67,16.67,0,0,0-5.58,4.73A21.58,21.58,0,0,0,205,46,27.16,27.16,0,0,0,203.86,54Z" transform="translate(-10.63 -12.87)"/><path class="cls-1" d="M251,30.87h3.42v9.45h.18a12.47,12.47,0,0,1,1.89-4.1,14.8,14.8,0,0,1,3.29-3.37,15.57,15.57,0,0,1,4.32-2.25,15.4,15.4,0,0,1,5-.81,17.39,17.39,0,0,1,5.76.85A13.87,13.87,0,0,1,279,32.89a11.25,11.25,0,0,1,2.7,3.15,12,12,0,0,1,1.35,3.56h.18a16.9,16.9,0,0,1,5.54-7.34,15.37,15.37,0,0,1,9.13-2.47,17.23,17.23,0,0,1,5.81.94,12.25,12.25,0,0,1,4.59,2.88,13.28,13.28,0,0,1,3,4.91,20.55,20.55,0,0,1,1.08,7V77.13H309V45.45a14.81,14.81,0,0,0-1.35-6.93,10.83,10.83,0,0,0-3.19-3.83,9.33,9.33,0,0,0-3.69-1.62,18.1,18.1,0,0,0-2.84-.31,15.24,15.24,0,0,0-5.8,1.08,12.33,12.33,0,0,0-4.59,3.24,15.28,15.28,0,0,0-3,5.35,22.91,22.91,0,0,0-1.08,7.34V77.13H280V45.45a15.32,15.32,0,0,0-1.3-6.89,10.35,10.35,0,0,0-3.06-3.82,9.18,9.18,0,0,0-3.6-1.62,16.23,16.23,0,0,0-2.93-.36,14.44,14.44,0,0,0-9.81,4.05,15.48,15.48,0,0,0-3.51,5.31,19.81,19.81,0,0,0-1.35,7.65V77.13H251Z" transform="translate(-10.63 -12.87)"/><path class="cls-1" d="M323.83,54.45V55a27.42,27.42,0,0,0,1.08,7.74,19.66,19.66,0,0,0,3.21,6.48,15.13,15.13,0,0,0,5.32,4.41,16.29,16.29,0,0,0,7.45,1.62q6.94,0,11-3.65a19,19,0,0,0,5.6-10.12h3.42q-1.53,8.1-6.62,12.42t-13.45,4.32a20.35,20.35,0,0,1-8.95-1.85,18,18,0,0,1-6.4-5,21.22,21.22,0,0,1-3.82-7.56,33.74,33.74,0,0,1-1.26-9.4,33,33,0,0,1,1.3-9.32,23.42,23.42,0,0,1,3.92-7.83,19.37,19.37,0,0,1,6.52-5.4,19.88,19.88,0,0,1,9.23-2,19.62,19.62,0,0,1,8.6,1.8,18.06,18.06,0,0,1,6.25,4.9,22,22,0,0,1,3.83,7.2,29.13,29.13,0,0,1,1.3,8.78c0,.3,0,.64,0,1a9.42,9.42,0,0,0-.05,1Zm34-3a27.74,27.74,0,0,0-1.26-7.16,17.75,17.75,0,0,0-3.21-5.94,15.92,15.92,0,0,0-5.14-4.09,15.1,15.1,0,0,0-6.9-1.53A16.29,16.29,0,0,0,334,34.33a16.57,16.57,0,0,0-5.33,4.14,18.7,18.7,0,0,0-3.34,6,28.09,28.09,0,0,0-1.44,7Z" transform="translate(-10.63 -12.87)"/><path class="cls-1" d="M411.31,33.84H401.23V66.15a12.49,12.49,0,0,0,.63,4.41A5,5,0,0,0,403.79,73a6.76,6.76,0,0,0,3.15,1,32.35,32.35,0,0,0,4.28.09v3a31.93,31.93,0,0,1-5.09,0,9.94,9.94,0,0,1-4.36-1.35,7.91,7.91,0,0,1-3-3.37,12.77,12.77,0,0,1-.94-6.21V33.84h-8.55v-3h8.55V16.47h3.42v14.4h10.08Z" transform="translate(-10.63 -12.87)"/><path class="cls-1" d="M414.19,54a30.5,30.5,0,0,1,1.39-9.32,23.37,23.37,0,0,1,4.1-7.69,19.58,19.58,0,0,1,6.66-5.27,22.37,22.37,0,0,1,18.18,0A19.58,19.58,0,0,1,451.18,37a23.35,23.35,0,0,1,4.09,7.69,30.5,30.5,0,0,1,1.4,9.32,30.86,30.86,0,0,1-1.4,9.36,22.77,22.77,0,0,1-4.09,7.69,19.57,19.57,0,0,1-6.66,5.22,22.27,22.27,0,0,1-18.18,0,19.57,19.57,0,0,1-6.66-5.22,22.79,22.79,0,0,1-4.1-7.69A30.86,30.86,0,0,1,414.19,54Zm3.42,0a27,27,0,0,0,1.17,8,21.53,21.53,0,0,0,3.42,6.8,16.64,16.64,0,0,0,5.58,4.72,17.51,17.51,0,0,0,15.3,0,16.64,16.64,0,0,0,5.58-4.72,21.53,21.53,0,0,0,3.42-6.8,27.7,27.7,0,0,0,0-15.93,21.58,21.58,0,0,0-3.42-6.79,16.67,16.67,0,0,0-5.58-4.73,17.6,17.6,0,0,0-15.3,0,16.67,16.67,0,0,0-5.58,4.73A21.58,21.58,0,0,0,418.78,46,27.16,27.16,0,0,0,417.61,54Z" transform="translate(-10.63 -12.87)"/><path class="cls-1" d="M20.44,102.87h4v64.26h-4Z" transform="translate(-10.63 -12.87)"/><path class="cls-1" d="M35.74,102.87h4v64.26h-4Z" transform="translate(-10.63 -12.87)"/><path class="cls-1" d="M51,102.87h4v64.26H51Z" transform="translate(-10.63 -12.87)"/><path class="cls-1" d="M66.34,102.87h40.32v3.42H70.3V132h32.76v3.42H70.3v31.68h-4Z" transform="translate(-10.63 -12.87)"/><path class="cls-1" d="M137.8,112.14v-9.27h3.42v9.27Zm0,55V120.87h3.42v46.26Z" transform="translate(-10.63 -12.87)"/><path class="cls-1" d="M152.11,120.87h3.42v9.9h.18a14.88,14.88,0,0,1,2.57-4.64,17.08,17.08,0,0,1,8.68-5.62,19.88,19.88,0,0,1,5.31-.72,21,21,0,0,1,6.89,1,13.45,13.45,0,0,1,4.63,2.61,12.61,12.61,0,0,1,2.84,3.64,16.86,16.86,0,0,1,1.48,4.1,24.08,24.08,0,0,1,.54,4c.06,1.3.09,2.42.09,3.38v28.62h-3.42V137.88q0-1.71-.27-4.32a13.15,13.15,0,0,0-1.57-5,11.5,11.5,0,0,0-4-4.09,13.49,13.49,0,0,0-7.34-1.71,16.31,16.31,0,0,0-7,1.44,15.19,15.19,0,0,0-5.22,4,17.72,17.72,0,0,0-3.28,6.12,25.77,25.77,0,0,0-1.13,7.79v25h-3.42Z" transform="translate(-10.63 -12.87)"/><path class="cls-1" d="M254.53,158h-.18a14.1,14.1,0,0,1-2.34,3.91,16.57,16.57,0,0,1-3.73,3.29,18.54,18.54,0,0,1-5,2.25,21.89,21.89,0,0,1-6.12.81q-7.38,0-11.43-3.2t-4-9.85a11.55,11.55,0,0,1,5.72-10.67,17.56,17.56,0,0,1,5.49-2.11,53.63,53.63,0,0,1,5.8-.9L244,141a30.52,30.52,0,0,0,5.81-.86,7.39,7.39,0,0,0,3.19-1.62,4.57,4.57,0,0,0,1.35-2.65,25.28,25.28,0,0,0,.27-4.05,8.54,8.54,0,0,0-.72-3.51,7.87,7.87,0,0,0-2.25-2.88,11.14,11.14,0,0,0-4-2,21.15,21.15,0,0,0-5.94-.72q-6.21,0-10,3.06t-4.19,9.27h-3.42q.36-7.65,4.91-11.48t12.91-3.82q8.37,0,12.2,3.28a10.81,10.81,0,0,1,3.82,8.6v26.91c0,.66,0,1.32.05,2a6.63,6.63,0,0,0,.31,1.8,2.64,2.64,0,0,0,.9,1.3,2.86,2.86,0,0,0,1.8.5,16.41,16.41,0,0,0,2.52-.27v2.88a10.78,10.78,0,0,1-2.79.36,8.2,8.2,0,0,1-3.28-.54,4.34,4.34,0,0,1-1.85-1.44,5.35,5.35,0,0,1-.85-2.12,14.53,14.53,0,0,1-.23-2.65Zm0-17.1a6.48,6.48,0,0,1-3.82,2.07,47.7,47.7,0,0,1-5.72.81l-5.76.54c-1.68.18-3.36.44-5,.76a14.64,14.64,0,0,0-4.54,1.67,9.3,9.3,0,0,0-3.29,3.19,9.86,9.86,0,0,0-1.26,5.27q0,5.13,3.24,7.6c2.16,1.66,5.13,2.48,8.91,2.48s7-.71,9.27-2.12a16.18,16.18,0,0,0,5.22-4.86A14.88,14.88,0,0,0,254,153a22.39,22.39,0,0,0,.49-3.46Z" transform="translate(-10.63 -12.87)"/><path class="cls-1" d="M294.49,102.87h25.74a27.84,27.84,0,0,1,9.63,1.44,17,17,0,0,1,6.21,3.78,13.93,13.93,0,0,1,3.38,5.35,18.67,18.67,0,0,1,1,6.08,13.67,13.67,0,0,1-.9,5,12.79,12.79,0,0,1-2.56,4.14,14.71,14.71,0,0,1-4,3A14.86,14.86,0,0,1,328,133.2l.18.18a10.36,10.36,0,0,1,3,.54A16.33,16.33,0,0,1,336,136.3a17.06,17.06,0,0,1,4.59,4.86,14.35,14.35,0,0,1,2,8,17.49,17.49,0,0,1-1.62,7.74,15.88,15.88,0,0,1-4.54,5.62,20.23,20.23,0,0,1-7.07,3.47,33.71,33.71,0,0,1-9.18,1.17H294.49ZM320.23,132q8.19,0,12.24-3.65a12.27,12.27,0,0,0,4-9.58,11.84,11.84,0,0,0-1.35-5.9,11.23,11.23,0,0,0-3.6-3.87,15,15,0,0,0-5.17-2.11,29.27,29.27,0,0,0-6.17-.63H298.45V132Zm0,31.68q8.64,0,13.55-3.65t4.9-10.93a12.36,12.36,0,0,0-1.71-6.8,12.72,12.72,0,0,0-4.36-4.18,18.41,18.41,0,0,0-5.94-2.12,37.69,37.69,0,0,0-6.44-.58H298.45v28.26Z" transform="translate(-10.63 -12.87)"/><path class="cls-1" d="M348.4,144a30.2,30.2,0,0,1,1.4-9.32,23.35,23.35,0,0,1,4.09-7.69,19.58,19.58,0,0,1,6.66-5.27,22.37,22.37,0,0,1,18.18,0,19.58,19.58,0,0,1,6.66,5.27,23.37,23.37,0,0,1,4.1,7.69,30.5,30.5,0,0,1,1.39,9.32,30.86,30.86,0,0,1-1.39,9.36,22.79,22.79,0,0,1-4.1,7.69,19.57,19.57,0,0,1-6.66,5.22,22.27,22.27,0,0,1-18.18,0,19.57,19.57,0,0,1-6.66-5.22,22.77,22.77,0,0,1-4.09-7.69A30.55,30.55,0,0,1,348.4,144Zm3.42,0a27,27,0,0,0,1.17,8,21.53,21.53,0,0,0,3.42,6.8,16.64,16.64,0,0,0,5.58,4.72,17.51,17.51,0,0,0,15.3,0,16.64,16.64,0,0,0,5.58-4.72,21.53,21.53,0,0,0,3.42-6.8,27.7,27.7,0,0,0,0-15.93,21.58,21.58,0,0,0-3.42-6.79,16.67,16.67,0,0,0-5.58-4.73,17.6,17.6,0,0,0-15.3,0,16.67,16.67,0,0,0-5.58,4.73A21.58,21.58,0,0,0,353,136,27.16,27.16,0,0,0,351.82,144Z" transform="translate(-10.63 -12.87)"/><path class="cls-1" d="M410.41,142.83l-16.92-22h4.77l14.49,19.35,14.58-19.35h4.41l-16.74,22,18.27,24.3h-4.68l-15.84-21.69-16.2,21.69h-4.32Z" transform="translate(-10.63 -12.87)"/><path class="cls-1" d="M442.09,157.86h4.59v9.27h-4.59Zm.18-33.3V102.87h4.32v21.69l-1.08,26.1h-2.16Z" transform="translate(-10.63 -12.87)"/></g><g id="Layer_3" data-name="Layer 3"><rect class="cls-2" x="79.77" y="205" width="289" height="41"/><path class="cls-3" d="M107.4,249.87l-7.53-21.42h3.06L109.05,247h.06l6.18-18.57h3l-7.62,21.42Z" transform="translate(-10.63 -12.87)"/><path class="cls-3" d="M124.26,228.45v21.42h-2.85V228.45Z" transform="translate(-10.63 -12.87)"/><path class="cls-3" d="M140.53,231.38a6,6,0,0,0-3.64-1,8.71,8.71,0,0,0-1.77.18,4.73,4.73,0,0,0-1.55.6,3.16,3.16,0,0,0-1.08,1.13,3.46,3.46,0,0,0-.4,1.75,2.2,2.2,0,0,0,.58,1.6,4.22,4.22,0,0,0,1.56,1,13.17,13.17,0,0,0,2.21.65c.82.17,1.65.35,2.5.55s1.69.44,2.51.71a8.22,8.22,0,0,1,2.2,1.09,5.21,5.21,0,0,1,1.56,1.74,6.07,6.07,0,0,1-.18,5.57,6.28,6.28,0,0,1-2,2,8.58,8.58,0,0,1-2.69,1.11,13,13,0,0,1-2.95.34,12.6,12.6,0,0,1-3.41-.45,8.4,8.4,0,0,1-2.82-1.36,6.47,6.47,0,0,1-1.92-2.34,7.55,7.55,0,0,1-.7-3.38h2.7a4.86,4.86,0,0,0,.52,2.33,4.76,4.76,0,0,0,1.38,1.6,5.85,5.85,0,0,0,2,.93,9.16,9.16,0,0,0,2.34.3,10.59,10.59,0,0,0,1.93-.18,5.73,5.73,0,0,0,1.76-.61,3.31,3.31,0,0,0,1.74-3.11,2.69,2.69,0,0,0-.59-1.8,4.29,4.29,0,0,0-1.56-1.12,11.36,11.36,0,0,0-2.2-.71l-2.51-.55c-.85-.19-1.68-.41-2.5-.66a9.1,9.1,0,0,1-2.21-1,4.42,4.42,0,0,1-2.14-4,5.66,5.66,0,0,1,.66-2.8,5.76,5.76,0,0,1,1.75-1.95,7.88,7.88,0,0,1,2.49-1.14,11,11,0,0,1,2.87-.38,11.45,11.45,0,0,1,3.06.39,6.91,6.91,0,0,1,2.47,1.23,6,6,0,0,1,1.68,2.12,7.52,7.52,0,0,1,.68,3h-2.7A4.46,4.46,0,0,0,140.53,231.38Z" transform="translate(-10.63 -12.87)"/><path class="cls-3" d="M162.94,231.48a6.6,6.6,0,0,0-3.88-1.14,7,7,0,0,0-3.29.72,6.5,6.5,0,0,0-2.25,1.94,8.32,8.32,0,0,0-1.3,2.77,12.41,12.41,0,0,0-.42,3.24,13.92,13.92,0,0,0,.42,3.47,8.28,8.28,0,0,0,1.3,2.85,6.45,6.45,0,0,0,2.27,1.93,7.05,7.05,0,0,0,3.3.72,6.33,6.33,0,0,0,2.5-.46,5.67,5.67,0,0,0,1.89-1.29,6,6,0,0,0,1.25-2,8.17,8.17,0,0,0,.54-2.46h2.85a9.73,9.73,0,0,1-2.79,6.3,9,9,0,0,1-6.48,2.25,10.33,10.33,0,0,1-4.35-.85,8.56,8.56,0,0,1-3.09-2.36,10.13,10.13,0,0,1-1.85-3.54,15.1,15.1,0,0,1-.61-4.38,14.26,14.26,0,0,1,.66-4.39,10.61,10.61,0,0,1,1.93-3.59,9,9,0,0,1,3.18-2.41,10.27,10.27,0,0,1,4.37-.89,11,11,0,0,1,3.18.45,8.55,8.55,0,0,1,2.67,1.32,7.44,7.44,0,0,1,1.95,2.18,8,8,0,0,1,1,3h-2.85A5.3,5.3,0,0,0,162.94,231.48Z" transform="translate(-10.63 -12.87)"/><path class="cls-3" d="M171.85,235a10.66,10.66,0,0,1,1.94-3.59,9.44,9.44,0,0,1,3.21-2.49,11.21,11.21,0,0,1,8.94,0,9.44,9.44,0,0,1,3.21,2.49,10.63,10.63,0,0,1,1.93,3.59,14,14,0,0,1,0,8.43,10.59,10.59,0,0,1-1.93,3.58,9.3,9.3,0,0,1-3.21,2.48,11.43,11.43,0,0,1-8.94,0,9.3,9.3,0,0,1-3.21-2.48,10.61,10.61,0,0,1-1.94-3.58,14.2,14.2,0,0,1,0-8.43Zm2.63,7.4a8.61,8.61,0,0,0,1.32,2.84,6.76,6.76,0,0,0,2.31,2,7.81,7.81,0,0,0,6.72,0,6.76,6.76,0,0,0,2.31-2,8.61,8.61,0,0,0,1.32-2.84,12.32,12.32,0,0,0,0-6.38,8.7,8.7,0,0,0-1.32-2.84,6.87,6.87,0,0,0-2.31-2,7.81,7.81,0,0,0-6.72,0,6.87,6.87,0,0,0-2.31,2,8.7,8.7,0,0,0-1.32,2.84,12.32,12.32,0,0,0,0,6.38Z" transform="translate(-10.63 -12.87)"/><path class="cls-3" d="M198.81,228.45v19h11.34v2.4H196V228.45Z" transform="translate(-10.63 -12.87)"/><path class="cls-3" d="M216.24,228.45v19h11.34v2.4H213.39V228.45Z" transform="translate(-10.63 -12.87)"/><path class="cls-3" d="M245.1,249.87l-7.53-21.42h3.06L246.75,247h.06L253,228.45h3l-7.62,21.42Z" transform="translate(-10.63 -12.87)"/><path class="cls-3" d="M273.78,228.45v2.4H261.84v6.81H273v2.4H261.84v7.41h12v2.4H259V228.45Z" transform="translate(-10.63 -12.87)"/><path class="cls-3" d="M288.14,228.45a7.07,7.07,0,0,1,4.79,1.5,5.16,5.16,0,0,1,1.72,4.11,6.5,6.5,0,0,1-.88,3.42,4.57,4.57,0,0,1-2.84,2v.06a3.84,3.84,0,0,1,1.52.6,3.3,3.3,0,0,1,.93,1,4.52,4.52,0,0,1,.51,1.3,11.73,11.73,0,0,1,.25,1.5q.06.78.09,1.59a13.81,13.81,0,0,0,.15,1.59,9.82,9.82,0,0,0,.35,1.49,3.63,3.63,0,0,0,.67,1.24h-3.18a1.79,1.79,0,0,1-.4-.9,9.13,9.13,0,0,1-.14-1.27c0-.47,0-1-.05-1.52a10.46,10.46,0,0,0-.19-1.59c-.08-.52-.18-1-.3-1.49a3.52,3.52,0,0,0-.57-1.22,2.81,2.81,0,0,0-1-.84,3.76,3.76,0,0,0-1.67-.32h-7v9.15h-2.86V228.45Zm.6,9.72a4.14,4.14,0,0,0,1.58-.58,3.2,3.2,0,0,0,1.08-1.17,4,4,0,0,0,.4-1.91,3.8,3.8,0,0,0-.9-2.64,3.7,3.7,0,0,0-2.91-1h-7.07v7.47h5.93A11.49,11.49,0,0,0,288.74,238.17Z" transform="translate(-10.63 -12.87)"/><path class="cls-3" d="M310.09,231.38a6.07,6.07,0,0,0-3.65-1,8.71,8.71,0,0,0-1.77.18,4.67,4.67,0,0,0-1.54.6,3.16,3.16,0,0,0-1.08,1.13,3.46,3.46,0,0,0-.41,1.75,2.21,2.21,0,0,0,.59,1.6,4.22,4.22,0,0,0,1.56,1,13,13,0,0,0,2.2.65c.82.17,1.66.35,2.51.55s1.68.44,2.51.71a8.37,8.37,0,0,1,2.2,1.09,5.21,5.21,0,0,1,1.56,1.74,6.15,6.15,0,0,1-.18,5.57,6.31,6.31,0,0,1-2,2,8.52,8.52,0,0,1-2.68,1.11,13.06,13.06,0,0,1-3,.34,12.52,12.52,0,0,1-3.4-.45,8.4,8.4,0,0,1-2.82-1.36,6.47,6.47,0,0,1-1.92-2.34,7.55,7.55,0,0,1-.71-3.38h2.7a4.86,4.86,0,0,0,.53,2.33,4.76,4.76,0,0,0,1.38,1.6,5.8,5.8,0,0,0,2,.93,9.16,9.16,0,0,0,2.34.3,10.69,10.69,0,0,0,1.94-.18,5.67,5.67,0,0,0,1.75-.61,3.34,3.34,0,0,0,1.75-3.11,2.69,2.69,0,0,0-.59-1.8,4.29,4.29,0,0,0-1.56-1.12,11.47,11.47,0,0,0-2.21-.71l-2.5-.55c-.85-.19-1.69-.41-2.51-.66a9,9,0,0,1-2.2-1,4.45,4.45,0,0,1-2.15-4,5.66,5.66,0,0,1,.66-2.8,5.78,5.78,0,0,1,1.76-1.95,7.88,7.88,0,0,1,2.49-1.14,11,11,0,0,1,2.86-.38,11.45,11.45,0,0,1,3.06.39,7,7,0,0,1,2.48,1.23,6,6,0,0,1,1.68,2.12,7.53,7.53,0,0,1,.67,3h-2.69A4.49,4.49,0,0,0,310.09,231.38Z" transform="translate(-10.63 -12.87)"/><path class="cls-3" d="M322.52,228.45v21.42h-2.85V228.45Z" transform="translate(-10.63 -12.87)"/><path class="cls-3" d="M327.52,235a10.63,10.63,0,0,1,1.93-3.59,9.44,9.44,0,0,1,3.21-2.49,11.21,11.21,0,0,1,8.94,0,9.44,9.44,0,0,1,3.21,2.49,10.66,10.66,0,0,1,1.94,3.59,14.2,14.2,0,0,1,0,8.43,10.61,10.61,0,0,1-1.94,3.58,9.3,9.3,0,0,1-3.21,2.48,11.43,11.43,0,0,1-8.94,0,9.3,9.3,0,0,1-3.21-2.48,10.59,10.59,0,0,1-1.93-3.58,14,14,0,0,1,0-8.43Zm2.62,7.4a8.61,8.61,0,0,0,1.32,2.84,6.76,6.76,0,0,0,2.31,2,7.81,7.81,0,0,0,6.72,0,6.76,6.76,0,0,0,2.31-2,8.61,8.61,0,0,0,1.32-2.84,12.32,12.32,0,0,0,0-6.38,8.7,8.7,0,0,0-1.32-2.84,6.87,6.87,0,0,0-2.31-2,7.81,7.81,0,0,0-6.72,0,6.87,6.87,0,0,0-2.31,2,8.7,8.7,0,0,0-1.32,2.84,12.32,12.32,0,0,0,0,6.38Z" transform="translate(-10.63 -12.87)"/><path class="cls-3" d="M354.62,228.45l11.28,17.37H366V228.45h2.7v21.42h-3.12l-11.19-17.19h-.06v17.19h-2.7V228.45Z" transform="translate(-10.63 -12.87)"/></g></g></svg>