<svg xmlns="http://www.w3.org/2000/svg" viewBox="0 0 401.43 240.58"><defs><style>.cls-1{fill:#313131;}.cls-2{fill:#231f20;}.cls-3{fill:#fff;}</style></defs><title>titleviscoll</title><g id="Layer_2" data-name="Layer 2"><g id="Layer_1-2" data-name="Layer 1"><path class="cls-1" d="M33.11,19.3h3.65l15.06,54H52l15.31-54h4.46l15.55,54h.16l14.82-54h3.81L89.49,77.13h-4L69.56,22.37H69.4L53.76,77.13h-4Z" transform="translate(-33.11 -19.3)"/><path class="cls-1" d="M109.33,56.72v.48a24.61,24.61,0,0,0,1,7A17.87,17.87,0,0,0,113.19,70,13.6,13.6,0,0,0,118,74a14.69,14.69,0,0,0,6.7,1.46q6.25,0,9.91-3.28a17.24,17.24,0,0,0,5-9.11h3.07q-1.38,7.29-5.95,11.17T124.64,78.1a18.33,18.33,0,0,1-8.06-1.66,16.37,16.37,0,0,1-5.75-4.54,19.06,19.06,0,0,1-3.44-6.8,30.25,30.25,0,0,1-1.14-8.46,29.48,29.48,0,0,1,1.18-8.39,20.88,20.88,0,0,1,3.52-7,17.36,17.36,0,0,1,5.87-4.86,17.81,17.81,0,0,1,8.31-1.83,17.6,17.6,0,0,1,7.73,1.62,16.13,16.13,0,0,1,5.63,4.42A19.54,19.54,0,0,1,141.93,47a25.67,25.67,0,0,1,1.18,7.9c0,.27,0,.58,0,.93s0,.63,0,.85ZM140,54a25,25,0,0,0-1.14-6.44,16,16,0,0,0-2.88-5.34,14.38,14.38,0,0,0-4.63-3.69,13.7,13.7,0,0,0-6.21-1.37,14.62,14.62,0,0,0-6.58,1.41,14.88,14.88,0,0,0-4.79,3.73,16.67,16.67,0,0,0-3,5.39,25.3,25.3,0,0,0-1.3,6.31Z" transform="translate(-33.11 -19.3)"/><path class="cls-1" d="M154,19.3V77.13H151V19.3Z" transform="translate(-33.11 -19.3)"/><path class="cls-1" d="M195.19,48.37a12,12,0,0,0-1.42-4.86,10.84,10.84,0,0,0-3-3.48,13.68,13.68,0,0,0-4.34-2.1,18.5,18.5,0,0,0-5.3-.73,14.47,14.47,0,0,0-6.89,1.58,15.06,15.06,0,0,0-5,4.21,19,19,0,0,0-3.08,6,23.1,23.1,0,0,0-1.05,6.93,29.32,29.32,0,0,0,1,7.77,17.64,17.64,0,0,0,3,6.2,13.85,13.85,0,0,0,5,4.09,16,16,0,0,0,7,1.46,14.7,14.7,0,0,0,5.38-1,14.38,14.38,0,0,0,4.38-2.68A13.67,13.67,0,0,0,194,67.69a16.84,16.84,0,0,0,1.62-5.22h3.07a19.55,19.55,0,0,1-2,6.64,16.29,16.29,0,0,1-3.89,4.9,16.93,16.93,0,0,1-5.35,3,18.9,18.9,0,0,1-6.31,1,19.16,19.16,0,0,1-8.71-1.82,16.76,16.76,0,0,1-5.91-4.9,20.84,20.84,0,0,1-3.41-7.09A32.09,32.09,0,0,1,162,55.91a26.6,26.6,0,0,1,1.26-8.26,20.07,20.07,0,0,1,3.68-6.81,17.62,17.62,0,0,1,6-4.62,18.8,18.8,0,0,1,8.18-1.7,23.27,23.27,0,0,1,6.36.85,16.41,16.41,0,0,1,5.26,2.56,13.3,13.3,0,0,1,3.77,4.33,15.49,15.49,0,0,1,1.78,6.11Z" transform="translate(-33.11 -19.3)"/><path class="cls-1" d="M203.94,56.31a27.58,27.58,0,0,1,1.25-8.38A21.15,21.15,0,0,1,208.88,41a17.6,17.6,0,0,1,6-4.73,20,20,0,0,1,16.37,0,17.6,17.6,0,0,1,6,4.73,20.94,20.94,0,0,1,3.68,6.93,27.27,27.27,0,0,1,1.26,8.38,27.74,27.74,0,0,1-1.26,8.43,20.41,20.41,0,0,1-3.68,6.92,17.77,17.77,0,0,1-6,4.7,20.12,20.12,0,0,1-16.37,0,17.77,17.77,0,0,1-6-4.7,20.61,20.61,0,0,1-3.69-6.92A28,28,0,0,1,203.94,56.31Zm3.08,0a24.39,24.39,0,0,0,1,7.17,19.47,19.47,0,0,0,3.08,6.12,14.94,14.94,0,0,0,5,4.25,15.79,15.79,0,0,0,13.77,0,14.94,14.94,0,0,0,5-4.25A19.47,19.47,0,0,0,238,63.48a25,25,0,0,0,0-14.34A19.41,19.41,0,0,0,235,43a14.94,14.94,0,0,0-5-4.25,15.79,15.79,0,0,0-13.77,0,14.94,14.94,0,0,0-5,4.25,19.41,19.41,0,0,0-3.08,6.11A24.49,24.49,0,0,0,207,56.31Z" transform="translate(-33.11 -19.3)"/><path class="cls-1" d="M249.46,35.5h3.08V44h.16a11.11,11.11,0,0,1,1.7-3.69,12.89,12.89,0,0,1,3-3,14,14,0,0,1,8.38-2.76,15.66,15.66,0,0,1,5.18.77,12.43,12.43,0,0,1,3.73,2,10.26,10.26,0,0,1,2.43,2.83,10.82,10.82,0,0,1,1.21,3.2h.17a15.17,15.17,0,0,1,5-6.6,13.88,13.88,0,0,1,8.22-2.23,15.61,15.61,0,0,1,5.22.85A11.07,11.07,0,0,1,301,38a11.89,11.89,0,0,1,2.71,4.41,18.45,18.45,0,0,1,1,6.32V77.13h-3.08V48.62a13.33,13.33,0,0,0-1.21-6.24,9.7,9.7,0,0,0-2.88-3.44,8.2,8.2,0,0,0-3.32-1.46,16.22,16.22,0,0,0-2.55-.28,13.66,13.66,0,0,0-5.22,1,11.14,11.14,0,0,0-4.14,2.91,13.83,13.83,0,0,0-2.71,4.82,20.58,20.58,0,0,0-1,6.61V77.13h-3.08V48.62a13.84,13.84,0,0,0-1.17-6.2A9.46,9.46,0,0,0,271.61,39a8.23,8.23,0,0,0-3.24-1.46,15,15,0,0,0-2.63-.32,13,13,0,0,0-8.83,3.64,13.9,13.9,0,0,0-3.16,4.78,17.83,17.83,0,0,0-1.21,6.89V77.13h-3.08Z" transform="translate(-33.11 -19.3)"/><path class="cls-1" d="M315,56.72v.48a24.61,24.61,0,0,0,1,7A17.87,17.87,0,0,0,318.84,70a13.63,13.63,0,0,0,4.8,4,14.66,14.66,0,0,0,6.7,1.46q6.26,0,9.9-3.28a17.18,17.18,0,0,0,5-9.11h3.08q-1.38,7.29-5.95,11.17T330.3,78.1a18.3,18.3,0,0,1-8.06-1.66,16.28,16.28,0,0,1-5.75-4.54A19.24,19.24,0,0,1,313,65.1a30.62,30.62,0,0,1-1.13-8.46,29.84,29.84,0,0,1,1.17-8.39,21.09,21.09,0,0,1,3.53-7,17.26,17.26,0,0,1,5.87-4.86,19.52,19.52,0,0,1,16-.21,16.22,16.22,0,0,1,5.63,4.42A19.54,19.54,0,0,1,347.59,47a26,26,0,0,1,1.17,7.9c0,.27,0,.58,0,.93s0,.63,0,.85ZM345.61,54a25,25,0,0,0-1.14-6.44,16,16,0,0,0-2.88-5.34A14.49,14.49,0,0,0,337,38.57a13.71,13.71,0,0,0-6.22-1.37,14.65,14.65,0,0,0-6.58,1.41,15,15,0,0,0-4.79,3.73,16.46,16.46,0,0,0-3,5.39,24.86,24.86,0,0,0-1.3,6.31Z" transform="translate(-33.11 -19.3)"/><path class="cls-1" d="M393.72,38.17h-9.07V67.25a11.51,11.51,0,0,0,.56,4A4.54,4.54,0,0,0,387,73.44a6.17,6.17,0,0,0,2.84.94,31.32,31.32,0,0,0,3.85.08v2.67a29.09,29.09,0,0,1-4.58,0,9.22,9.22,0,0,1-3.93-1.22,7.06,7.06,0,0,1-2.71-3,11.43,11.43,0,0,1-.85-5.59V38.17h-7.7V35.5h7.7v-13h3.08v13h9.07Z" transform="translate(-33.11 -19.3)"/><path class="cls-1" d="M396.31,56.31a27.27,27.27,0,0,1,1.26-8.38A20.94,20.94,0,0,1,401.25,41a17.55,17.55,0,0,1,6-4.73,20,20,0,0,1,16.36,0,17.6,17.6,0,0,1,6,4.73,21.15,21.15,0,0,1,3.69,6.93,27.58,27.58,0,0,1,1.25,8.38,28,28,0,0,1-1.25,8.43,20.61,20.61,0,0,1-3.69,6.92,17.77,17.77,0,0,1-6,4.7,20.1,20.1,0,0,1-16.36,0,17.71,17.71,0,0,1-6-4.7,20.41,20.41,0,0,1-3.68-6.92A27.74,27.74,0,0,1,396.31,56.31Zm3.08,0a24.39,24.39,0,0,0,1.05,7.17,19.47,19.47,0,0,0,3.08,6.12,14.94,14.94,0,0,0,5,4.25,15.79,15.79,0,0,0,13.77,0,14.94,14.94,0,0,0,5-4.25,19.47,19.47,0,0,0,3.08-6.12,25,25,0,0,0,0-14.34A19.41,19.41,0,0,0,427.33,43a14.94,14.94,0,0,0-5-4.25,15.79,15.79,0,0,0-13.77,0,14.94,14.94,0,0,0-5,4.25,19.41,19.41,0,0,0-3.08,6.11A24.49,24.49,0,0,0,399.39,56.31Z" transform="translate(-33.11 -19.3)"/><path class="cls-1" d="M37.86,105.73h4.4v71.4h-4.4Z" transform="translate(-33.11 -19.3)"/><path class="cls-1" d="M54.86,105.73h4.4v71.4h-4.4Z" transform="translate(-33.11 -19.3)"/><path class="cls-1" d="M71.86,105.73h4.4v71.4h-4.4Z" transform="translate(-33.11 -19.3)"/><path class="cls-1" d="M88.86,105.73h44.8v3.8H93.26v28.6h36.4v3.8H93.26v35.2h-4.4Z" transform="translate(-33.11 -19.3)"/><path class="cls-1" d="M160.36,109.53v-3.8h54.7v3.8h-25.2v67.6h-4.4v-67.6Z" transform="translate(-33.11 -19.3)"/><path class="cls-1" d="M207.26,151.43a33.57,33.57,0,0,1,1.55-10.35,26,26,0,0,1,4.55-8.55,21.47,21.47,0,0,1,7.4-5.85,24.8,24.8,0,0,1,20.2,0,21.56,21.56,0,0,1,7.4,5.85,26.18,26.18,0,0,1,4.55,8.55,33.87,33.87,0,0,1,1.55,10.35,34.39,34.39,0,0,1-1.55,10.4,25.39,25.39,0,0,1-4.55,8.55,21.91,21.91,0,0,1-7.4,5.8,24.8,24.8,0,0,1-20.2,0,21.81,21.81,0,0,1-7.4-5.8,25.22,25.22,0,0,1-4.55-8.55A34.08,34.08,0,0,1,207.26,151.43Zm3.8,0a29.94,29.94,0,0,0,1.3,8.85,23.84,23.84,0,0,0,3.8,7.55,18.41,18.41,0,0,0,6.2,5.25,19.5,19.5,0,0,0,17,0,18.6,18.6,0,0,0,6.2-5.25,24.26,24.26,0,0,0,3.8-7.55,30.77,30.77,0,0,0,0-17.7,24.26,24.26,0,0,0-3.8-7.55,18.6,18.6,0,0,0-6.2-5.25,19.5,19.5,0,0,0-17,0,18.41,18.41,0,0,0-6.2,5.25,23.84,23.84,0,0,0-3.8,7.55A29.94,29.94,0,0,0,211.06,151.43Z" transform="translate(-33.11 -19.3)"/><path class="cls-1" d="M289.26,141.83a46,46,0,0,1,2.25-14.45,36.58,36.58,0,0,1,6.55-12,31.16,31.16,0,0,1,10.55-8.25A32.35,32.35,0,0,1,323,104a34.2,34.2,0,0,1,10.5,1.6,28,28,0,0,1,15.6,12.2,27.14,27.14,0,0,1,3.6,10h-4.2q-2.5-9.4-9-14.7t-16.4-5.3a26.88,26.88,0,0,0-21.9,10.3,33,33,0,0,0-5.6,10.85,45,45,0,0,0-.05,25.7,30.73,30.73,0,0,0,5.5,10.55,26.26,26.26,0,0,0,9.15,7.15,29.33,29.33,0,0,0,12.9,2.65,30,30,0,0,0,11.5-2.1,24.42,24.42,0,0,0,8.65-5.9,24.81,24.81,0,0,0,5.35-9.15,32.62,32.62,0,0,0,1.5-11.95h-26.3v-3.8h30.1v35h-3.8v-15.2h-.2a21.94,21.94,0,0,1-3.9,7,24.25,24.25,0,0,1-6.15,5.3,31.32,31.32,0,0,1-7.9,3.35,36.07,36.07,0,0,1-23.4-1.7A30.74,30.74,0,0,1,298,168a33.71,33.71,0,0,1-6.5-11.75A46.27,46.27,0,0,1,289.26,141.83Z" transform="translate(-33.11 -19.3)"/><path class="cls-1" d="M362.86,151.43a33.57,33.57,0,0,1,1.55-10.35,26,26,0,0,1,4.55-8.55,21.47,21.47,0,0,1,7.4-5.85,24.8,24.8,0,0,1,20.2,0,21.56,21.56,0,0,1,7.4,5.85,26.18,26.18,0,0,1,4.55,8.55,33.87,33.87,0,0,1,1.55,10.35,34.39,34.39,0,0,1-1.55,10.4,25.39,25.39,0,0,1-4.55,8.55,21.91,21.91,0,0,1-7.4,5.8,24.8,24.8,0,0,1-20.2,0,21.81,21.81,0,0,1-7.4-5.8,25.22,25.22,0,0,1-4.55-8.55A34.08,34.08,0,0,1,362.86,151.43Zm3.8,0a29.94,29.94,0,0,0,1.3,8.85,23.84,23.84,0,0,0,3.8,7.55,18.41,18.41,0,0,0,6.2,5.25,19.5,19.5,0,0,0,17,0,18.6,18.6,0,0,0,6.2-5.25,24.26,24.26,0,0,0,3.8-7.55,30.77,30.77,0,0,0,0-17.7,24.26,24.26,0,0,0-3.8-7.55,18.6,18.6,0,0,0-6.2-5.25,19.5,19.5,0,0,0-17,0,18.41,18.41,0,0,0-6.2,5.25,23.84,23.84,0,0,0-3.8,7.55A29.94,29.94,0,0,0,366.66,151.43Z" transform="translate(-33.11 -19.3)"/><path class="cls-1" d="M423.75,166.83h5.1v10.3h-5.1Zm.2-37v-24.1h4.8v24.1l-1.2,29h-2.4Z" transform="translate(-33.11 -19.3)"/></g><g id="viscoll"><rect class="cls-2" x="55.3" y="199.58" width="289" height="41"/><path class="cls-3" d="M105.4,250.87l-7.53-21.42h3.06L107.05,248h.06l6.18-18.57h3l-7.62,21.42Z" transform="translate(-33.11 -19.3)"/><path class="cls-3" d="M122.26,229.45v21.42h-2.85V229.45Z" transform="translate(-33.11 -19.3)"/><path class="cls-3" d="M138.53,232.38a6,6,0,0,0-3.64-1,8.71,8.71,0,0,0-1.77.18,4.73,4.73,0,0,0-1.55.6,3.16,3.16,0,0,0-1.08,1.13,3.46,3.46,0,0,0-.4,1.75,2.2,2.2,0,0,0,.58,1.6,4.22,4.22,0,0,0,1.56,1,13.17,13.17,0,0,0,2.21.65c.82.17,1.65.35,2.5.55s1.69.44,2.51.71a8.22,8.22,0,0,1,2.2,1.09,5.21,5.21,0,0,1,1.56,1.74,6.07,6.07,0,0,1-.18,5.57,6.28,6.28,0,0,1-2,2,8.58,8.58,0,0,1-2.69,1.11,13,13,0,0,1-2.95.34,12.6,12.6,0,0,1-3.41-.45,8.4,8.4,0,0,1-2.82-1.36,6.47,6.47,0,0,1-1.92-2.34,7.55,7.55,0,0,1-.7-3.38h2.7a4.86,4.86,0,0,0,.52,2.33,4.76,4.76,0,0,0,1.38,1.6,5.85,5.85,0,0,0,2,.93,9.16,9.16,0,0,0,2.34.3,10.59,10.59,0,0,0,1.93-.18,5.73,5.73,0,0,0,1.76-.61,3.31,3.31,0,0,0,1.74-3.11,2.69,2.69,0,0,0-.59-1.8,4.29,4.29,0,0,0-1.56-1.12,11.36,11.36,0,0,0-2.2-.71l-2.51-.55c-.85-.19-1.68-.41-2.5-.66a9.1,9.1,0,0,1-2.21-1,4.42,4.42,0,0,1-2.14-4,5.66,5.66,0,0,1,.66-2.8,5.76,5.76,0,0,1,1.75-1.95,7.88,7.88,0,0,1,2.49-1.14,11,11,0,0,1,2.87-.38,11.45,11.45,0,0,1,3.06.39,6.91,6.91,0,0,1,2.47,1.23,6,6,0,0,1,1.68,2.12,7.52,7.52,0,0,1,.68,3h-2.7A4.46,4.46,0,0,0,138.53,232.38Z" transform="translate(-33.11 -19.3)"/><path class="cls-3" d="M160.94,232.48a6.6,6.6,0,0,0-3.88-1.14,7,7,0,0,0-3.29.72,6.5,6.5,0,0,0-2.25,1.94,8.32,8.32,0,0,0-1.3,2.77,12.41,12.41,0,0,0-.42,3.24,13.92,13.92,0,0,0,.42,3.47,8.28,8.28,0,0,0,1.3,2.85,6.45,6.45,0,0,0,2.27,1.93,7.05,7.05,0,0,0,3.3.72,6.33,6.33,0,0,0,2.5-.46,5.67,5.67,0,0,0,1.89-1.29,6,6,0,0,0,1.25-2,8.17,8.17,0,0,0,.54-2.46h2.85a9.73,9.73,0,0,1-2.79,6.3,9,9,0,0,1-6.48,2.25,10.33,10.33,0,0,1-4.35-.85,8.56,8.56,0,0,1-3.09-2.36,10.13,10.13,0,0,1-1.85-3.54,15.1,15.1,0,0,1-.61-4.38,14.26,14.26,0,0,1,.66-4.39,10.61,10.61,0,0,1,1.93-3.59,9,9,0,0,1,3.18-2.41,10.27,10.27,0,0,1,4.37-.89,11,11,0,0,1,3.18.45,8.55,8.55,0,0,1,2.67,1.32,7.44,7.44,0,0,1,1.95,2.18,8,8,0,0,1,1,3h-2.85A5.3,5.3,0,0,0,160.94,232.48Z" transform="translate(-33.11 -19.3)"/><path class="cls-3" d="M169.85,236a10.66,10.66,0,0,1,1.94-3.59,9.44,9.44,0,0,1,3.21-2.49,11.21,11.21,0,0,1,8.94,0,9.44,9.44,0,0,1,3.21,2.49,10.63,10.63,0,0,1,1.93,3.59,14,14,0,0,1,0,8.43,10.59,10.59,0,0,1-1.93,3.58,9.3,9.3,0,0,1-3.21,2.48,11.43,11.43,0,0,1-8.94,0,9.3,9.3,0,0,1-3.21-2.48,10.61,10.61,0,0,1-1.94-3.58,14.2,14.2,0,0,1,0-8.43Zm2.63,7.4a8.61,8.61,0,0,0,1.32,2.84,6.76,6.76,0,0,0,2.31,2,7.81,7.81,0,0,0,6.72,0,6.76,6.76,0,0,0,2.31-2,8.61,8.61,0,0,0,1.32-2.84,12.32,12.32,0,0,0,0-6.38,8.7,8.7,0,0,0-1.32-2.84,6.87,6.87,0,0,0-2.31-2,7.81,7.81,0,0,0-6.72,0,6.87,6.87,0,0,0-2.31,2,8.7,8.7,0,0,0-1.32,2.84,12.32,12.32,0,0,0,0,6.38Z" transform="translate(-33.11 -19.3)"/><path class="cls-3" d="M196.81,229.45v19h11.34v2.4H194V229.45Z" transform="translate(-33.11 -19.3)"/><path class="cls-3" d="M214.24,229.45v19h11.34v2.4H211.39V229.45Z" transform="translate(-33.11 -19.3)"/><path class="cls-3" d="M243.1,250.87l-7.53-21.42h3.06L244.75,248h.06L251,229.45h3l-7.62,21.42Z" transform="translate(-33.11 -19.3)"/><path class="cls-3" d="M271.78,229.45v2.4H259.84v6.81H271v2.4H259.84v7.41h12v2.4H257V229.45Z" transform="translate(-33.11 -19.3)"/><path class="cls-3" d="M286.14,229.45a7.07,7.07,0,0,1,4.79,1.5,5.16,5.16,0,0,1,1.72,4.11,6.5,6.5,0,0,1-.88,3.42,4.57,4.57,0,0,1-2.84,2v.06a3.84,3.84,0,0,1,1.52.6,3.3,3.3,0,0,1,.93,1,4.52,4.52,0,0,1,.51,1.3,11.73,11.73,0,0,1,.25,1.5q.06.78.09,1.59a13.81,13.81,0,0,0,.15,1.59,9.82,9.82,0,0,0,.35,1.49,3.63,3.63,0,0,0,.67,1.24h-3.18a1.79,1.79,0,0,1-.4-.9,9.13,9.13,0,0,1-.14-1.27c0-.47,0-1-.05-1.52a10.46,10.46,0,0,0-.19-1.59c-.08-.52-.18-1-.3-1.49a3.52,3.52,0,0,0-.57-1.22,2.81,2.81,0,0,0-1-.84,3.76,3.76,0,0,0-1.67-.32h-7v9.15h-2.86V229.45Zm.6,9.72a4.14,4.14,0,0,0,1.58-.58,3.2,3.2,0,0,0,1.08-1.17,4,4,0,0,0,.4-1.91,3.8,3.8,0,0,0-.9-2.64,3.7,3.7,0,0,0-2.91-1h-7.07v7.47h5.93A11.49,11.49,0,0,0,286.74,239.17Z" transform="translate(-33.11 -19.3)"/><path class="cls-3" d="M308.09,232.38a6.07,6.07,0,0,0-3.65-1,8.71,8.71,0,0,0-1.77.18,4.67,4.67,0,0,0-1.54.6,3.16,3.16,0,0,0-1.08,1.13,3.46,3.46,0,0,0-.41,1.75,2.21,2.21,0,0,0,.59,1.6,4.22,4.22,0,0,0,1.56,1,13,13,0,0,0,2.2.65c.82.17,1.66.35,2.51.55s1.68.44,2.51.71a8.37,8.37,0,0,1,2.2,1.09,5.21,5.21,0,0,1,1.56,1.74,6.15,6.15,0,0,1-.18,5.57,6.31,6.31,0,0,1-2,2,8.52,8.52,0,0,1-2.68,1.11,13.06,13.06,0,0,1-3,.34,12.52,12.52,0,0,1-3.4-.45,8.4,8.4,0,0,1-2.82-1.36,6.47,6.47,0,0,1-1.92-2.34,7.55,7.55,0,0,1-.71-3.38h2.7a4.86,4.86,0,0,0,.53,2.33,4.76,4.76,0,0,0,1.38,1.6,5.8,5.8,0,0,0,2,.93,9.16,9.16,0,0,0,2.34.3,10.69,10.69,0,0,0,1.94-.18,5.67,5.67,0,0,0,1.75-.61,3.34,3.34,0,0,0,1.75-3.11,2.69,2.69,0,0,0-.59-1.8,4.29,4.29,0,0,0-1.56-1.12,11.47,11.47,0,0,0-2.21-.71l-2.5-.55c-.85-.19-1.69-.41-2.51-.66a9,9,0,0,1-2.2-1,4.45,4.45,0,0,1-2.15-4,5.66,5.66,0,0,1,.66-2.8,5.78,5.78,0,0,1,1.76-1.95,7.88,7.88,0,0,1,2.49-1.14,11,11,0,0,1,2.86-.38,11.45,11.45,0,0,1,3.06.39,7,7,0,0,1,2.48,1.23,6,6,0,0,1,1.68,2.12,7.53,7.53,0,0,1,.67,3h-2.69A4.49,4.49,0,0,0,308.09,232.38Z" transform="translate(-33.11 -19.3)"/><path class="cls-3" d="M320.52,229.45v21.42h-2.85V229.45Z" transform="translate(-33.11 -19.3)"/><path class="cls-3" d="M325.52,236a10.63,10.63,0,0,1,1.93-3.59,9.44,9.44,0,0,1,3.21-2.49,11.21,11.21,0,0,1,8.94,0,9.44,9.44,0,0,1,3.21,2.49,10.66,10.66,0,0,1,1.94,3.59,14.2,14.2,0,0,1,0,8.43,10.61,10.61,0,0,1-1.94,3.58,9.3,9.3,0,0,1-3.21,2.48,11.43,11.43,0,0,1-8.94,0,9.3,9.3,0,0,1-3.21-2.48,10.59,10.59,0,0,1-1.93-3.58,14,14,0,0,1,0-8.43Zm2.62,7.4a8.61,8.61,0,0,0,1.32,2.84,6.76,6.76,0,0,0,2.31,2,7.81,7.81,0,0,0,6.72,0,6.76,6.76,0,0,0,2.31-2,8.61,8.61,0,0,0,1.32-2.84,12.32,12.32,0,0,0,0-6.38,8.7,8.7,0,0,0-1.32-2.84,6.87,6.87,0,0,0-2.31-2,7.81,7.81,0,0,0-6.72,0,6.87,6.87,0,0,0-2.31,2,8.7,8.7,0,0,0-1.32,2.84,12.32,12.32,0,0,0,0,6.38Z" transform="translate(-33.11 -19.3)"/><path class="cls-3" d="M352.62,229.45l11.28,17.37H364V229.45h2.7v21.42h-3.12l-11.19-17.19h-.06v17.19h-2.7V229.45Z" transform="translate(-33.11 -19.3)"/></g></g></svg>